<svg xmlns="http://www.w3.org/2000/svg" viewBox="0 0 512 512"><path fill="#f4daa7" d="M79.567 273.118V454.5l342.866 10V256.688z"/><path fill="#f1cd88" d="M79.567 232.997v40.121c6.219 14.388 20.477 24.622 36.972 24.342 12.885-.219 24.266-6.594 31.344-16.306 7.204 9.884 18.863 16.312 32.03 16.312s24.826-6.428 32.03-16.312c7.204 9.884 18.863 16.312 32.03 16.312s24.826-6.428 32.03-16.312c7.204 9.884 18.863 16.312 32.03 16.312s24.826-6.428 32.03-16.312c7.204 9.884 18.863 16.312 32.03 16.312s24.826-6.428 32.03-16.312a39.855 39.855 0 0011.312 10.456V447a7.5 7.5 0 01-7.5 7.5H79.567v22.667h352.866v-244.17z"/><path fill="#9ec8fc" d="M267.471 382.706l-18.287-75.238H124.57c-8.284 0-15 6.716-15 15v68.876l100.136 17.854z"/><path fill="#80b6fc" d="M254.185 307.468h-5.001v76.376a7.5 7.5 0 01-7.5 7.5H109.57v5.001c0 8.284 6.716 15 15 15h129.615c8.284 0 15-6.716 15-15v-73.877c0-8.285-6.716-15-15-15z"/><path fill="#9ec8fc" d="M313.598 307.468c-8.284 0-15 6.716-15 15v154.699l87.623 3.01-7.18-172.709z"/><path fill="#80b6fc" d="M399.043 322.468c0-8.284-6.716-15-15-15h-5.001V447a7.5 7.5 0 01-7.5 7.5h-72.943v31.327l100.445-8.66V322.468z"/><path fill="#e6989e" d="M356.907 133.418h-50.454l-26.159 10.455L256 133.418h-50.454l-28.676 9.093-21.778-9.093H121.06a30 30 0 00-25.271 13.833L58.6 205.383a15.007 15.007 0 00-1.703 3.696s19.632 38.188 347.632 19.804c-12.235-77.177-47.622-95.465-47.622-95.465z"/><path fill="#e27f86" d="M335.824 209.079H56.897a15.003 15.003 0 00-.662 4.388v3.602c0 22.166 18.139 48.426 40.302 48.049 12.885-.219 63.374-7.654 63.374-7.654s50.893 7.658 64.06 7.658 64.059-12.71 64.059-12.71 50.893 15.529 64.059 15.529c13.167 0 24.826-16.906 32.03-26.79v-32.073h-48.295z"/><path fill="#df646e" d="M384.119 241.151c-7.204 9.884-18.863 16.312-32.03 16.312s-24.826-6.428-32.03-16.312H256c-7.204 9.884-18.863 16.312-32.03 16.312s-24.826-6.428-32.03-16.312h-64.059c-7.078 9.712-18.459 16.087-31.344 16.306-22.163.376-40.302-18.223-40.302-40.389v20.001c0 22.166 18.139 40.766 40.302 40.389 12.885-.219 24.266-6.594 31.344-16.306h64.059c7.204 9.884 18.863 16.312 32.03 16.312s24.826-6.428 32.03-16.312h64.06c7.204 9.884 18.863 16.312 32.03 16.312s24.826-6.428 32.03-16.312l6.293-5.152z"/><path fill="#d2e4e7" d="M191.94 209.079l13.606-75.661h-50.453l-27.212 75.661 32.03 18.862z"/><path fill="#b4d2d7" d="M127.881 209.079v32.073c4.413 16.312 18.863 26.79 32.03 26.79s29.467-14.235 32.03-26.79v-32.073z"/><path fill="#9bb9c3" d="M159.911 257.463c-13.167 0-24.826-6.428-32.03-16.312v20.001c7.204 9.884 18.863 16.312 32.03 16.312s24.826-6.428 32.03-16.312v-20.001c-7.204 9.884-18.864 16.312-32.03 16.312z"/><path fill="#d2e4e7" d="M320.06 209.079l-13.606-75.661H256v75.661l32.03 16.509z"/><path fill="#b4d2d7" d="M256 209.079v32.073c2.294 14.849 18.863 25.192 32.03 25.192s29.206-12.637 32.03-25.192v-32.073z"/><path fill="#9bb9c3" d="M288.03 257.463c-13.167 0-24.826-6.428-32.03-16.312v20.001c7.204 9.884 18.863 16.312 32.03 16.312s24.826-6.428 32.03-16.312v-20.001c-7.204 9.884-18.864 16.312-32.03 16.312z"/><path fill="#d2e4e7" d="M448.882 217.068c-22.235-56.539-62.661-83.65-62.661-83.65h-29.314l27.212 75.661s9.352 16.509 64.763 7.989z"/><path fill="#b4d2d7" d="M434.329 209.079h20.774a15.007 15.007 0 00-1.703-3.696l-37.19-58.132a30 30 0 00-25.271-13.833h-4.718l47.178 73.965c.349.546.656 1.114.93 1.696z"/><path fill="#b4d2d7" d="M384.119 241.151c5.116 18.157 17.996 28.218 30.881 28.437 2.861.049 32.471-19.207 32.471-26.317 0 0-2.294-28.036-13.142-34.193h-50.21z"/><path fill="#9bb9c3" d="M434.329 209.079a14.995 14.995 0 011.435 6.388v22.245c0 11.576-7.883 19.747-20.301 19.747-12.887 0-24.265-6.595-31.344-16.306v20.001c7.078 9.712 18.458 16.087 31.344 16.306 22.163.377 40.302-18.223 40.302-40.389v-23.603c0-1.495-.229-2.972-.662-4.388h-20.774z"/><path fill="#d2e4e7" d="M342.754 13.054A47.732 47.732 0 00320.352 7.5H191.648c-26.486 0-47.958 21.471-47.958 47.958a47.726 47.726 0 005.554 22.402c5.402 5.772 16.485 14.595 24.578 14.595 19.437 0 47.882-8 51.647-27.5l51.188 10.266c.403.888.837 1.759 1.291 2.618 6.227 6.734 18.952 15.439 27.051 15.439 26.487 0 67.883-49.176 37.755-80.224z"/><path fill="#b4d2d7" d="M342.754 13.054a47.729 47.729 0 015.554 22.402c0 26.486-21.471 47.958-47.958 47.958a47.669 47.669 0 01-22.401-5.575c8.042 15.206 24.004 25.576 42.402 25.576 26.486 0 47.958-21.471 47.958-47.958 0-18.392-10.359-34.358-25.555-42.403zM266.903 55.22h-46.978a7.497 7.497 0 00-6.523 3.813c-8.233 14.553-23.842 24.381-41.755 24.381a47.726 47.726 0 01-22.402-5.554c8.045 15.197 24.011 25.555 42.403 25.555 19.437 0 36.161-11.571 43.693-28.194h41.317a61.924 61.924 0 01-2.275-13.017c-.254-3.936-3.536-6.984-7.48-6.984z"/><path fill="#d2e4e7" d="M461.94 474.5H50.059c-8.284 0-14.999 6.715-15 14.999l348.529 11.619 86.118-11.618z"/><path fill="#b4d2d7" d="M461.941 474.5s-.059 14.999-15.001 14.999l-411.881.001c0 8.284 6.716 15 15 15h411.882c8.284 0 15-6.716 15-15s-6.716-15-15-15z"/><g><path d="M124.57 299.968c-12.407 0-22.5 10.094-22.5 22.5v73.877c0 12.406 10.093 22.5 22.5 22.5h129.615c12.407 0 22.5-10.094 22.5-22.5v-73.877c0-12.406-10.093-22.5-22.5-22.5zm137.115 22.5v73.877c0 4.136-3.364 7.5-7.5 7.5H124.57c-4.136 0-7.5-3.364-7.5-7.5v-73.877c0-4.136 3.364-7.5 7.5-7.5h129.615c4.136 0 7.5 3.364 7.5 7.5zM369.04 376.909a7.5 7.5 0 00-7.5 7.5v22.924c0 4.143 3.358 7.5 7.5 7.5s7.5-3.357 7.5-7.5v-22.924a7.5 7.5 0 00-7.5-7.5z"/><path d="M461.941 467h-22.008V341.591c0-4.143-3.358-7.5-7.5-7.5s-7.5 3.357-7.5 7.5V467h-18.39V322.468c0-12.406-10.093-22.5-22.5-22.5h-70.445c-12.407 0-22.5 10.094-22.5 22.5V467H153.625c-4.142 0-7.5 3.357-7.5 7.5s3.358 7.5 7.5 7.5h308.316c4.136 0 7.5 3.364 7.5 7.5s-3.364 7.5-7.5 7.5H50.059c-4.136 0-7.5-3.364-7.5-7.5s3.364-7.5 7.5-7.5h73.564c4.142 0 7.5-3.357 7.5-7.5s-3.358-7.5-7.5-7.5H87.067V284.111c3.131.608 6.342.901 9.598.847 11.814-.201 22.806-4.688 31.236-12.559 8.639 7.981 20.084 12.565 32.01 12.565 11.935 0 23.389-4.591 32.03-12.584 8.641 7.993 20.095 12.584 32.03 12.584s23.389-4.591 32.03-12.584c8.641 7.993 20.095 12.584 32.03 12.584s23.389-4.591 32.03-12.584c8.641 7.993 20.095 12.584 32.03 12.584 11.926 0 23.371-4.584 32.01-12.565 8.431 7.871 19.421 12.357 31.236 12.559a45.841 45.841 0 009.598-.837v27.468c0 4.143 3.358 7.5 7.5 7.5s7.5-3.357 7.5-7.5v-33.257a48.042 48.042 0 008.868-6.886c9.191-9.037 14.463-21.566 14.463-34.377v-23.604c0-4.306-1.227-8.499-3.546-12.125l-37.19-58.132c-6.926-10.827-18.735-17.291-31.589-17.291h-76.986v-15.395c2.146.254 4.318.392 6.511.392 30.625 0 55.542-24.878 55.542-55.457C376.006 24.878 351.09 0 320.465 0h-128.93c-30.625 0-55.542 24.878-55.542 55.458 0 30.579 24.916 55.457 55.542 55.457 2.193 0 4.365-.138 6.511-.392v15.395H121.06c-12.854 0-24.663 6.464-31.589 17.291l-37.189 58.132a22.458 22.458 0 00-3.547 12.125v23.604c0 12.81 5.271 25.339 14.463 34.376a47.975 47.975 0 008.869 6.884V467H50.059c-12.407 0-22.5 10.094-22.5 22.5s10.093 22.5 22.5 22.5h411.883c12.407 0 22.5-10.094 22.5-22.5S474.348 467 461.941 467zM306.098 322.468c0-4.136 3.364-7.5 7.5-7.5h70.445c4.135 0 7.5 3.364 7.5 7.5V467h-85.445zm-109.521-181.55l-10.909 60.661h-47.12l21.817-60.661zm51.923 0v60.661h-47.591l10.908-60.661zm51.682 0l10.908 60.661H263.5v-60.661zM223.97 269.965c-9.45 0-18.452-4.232-24.53-11.414v-41.972h49.06v41.972c-6.077 7.182-15.08 11.414-24.53 11.414zm64.06 0c-9.45 0-18.452-4.232-24.53-11.414v-41.972h49.06v41.972c-6.078 7.182-15.081 11.414-24.53 11.414zm64.059 0c-9.45 0-18.452-4.232-24.53-11.414v-41.972h2.5c4.142 0 7.5-3.357 7.5-7.5s-3.358-7.5-7.5-7.5h-3.729l-10.909-60.661h36.212l21.817 60.661h-13.389c-4.142 0-7.5 3.357-7.5 7.5s3.358 7.5 7.5 7.5h16.557v41.972c-6.076 7.182-15.079 11.414-24.529 11.414zm86.196-9.215c-6.188 6.083-14.257 9.37-22.695 9.21-9.372-.159-17.982-4.289-23.971-11.403v-41.978h56.646v20.49c0 8.815-3.638 17.446-9.98 23.681zm-28.392-109.457l32.171 50.286h-52.671l-21.817-60.661h23.364a22.4 22.4 0 0118.953 10.375zM150.994 55.458c0-22.309 18.187-40.458 40.542-40.458h128.929c22.355 0 40.542 18.149 40.542 40.458 0 22.308-18.187 40.457-40.542 40.457-15.88 0-30.38-9.34-36.94-23.793a7.5 7.5 0 00-6.83-4.4h-41.389a7.503 7.503 0 00-6.83 4.4c-6.56 14.453-21.06 23.793-36.94 23.793-22.355 0-40.542-18.149-40.542-40.457zm62.052 51.108c11.198-4.714 20.727-13.035 26.849-23.844h32.208c6.123 10.81 15.651 19.13 26.849 23.844v19.352h-85.907v-19.352zm-110.939 44.727a22.4 22.4 0 0118.953-10.375h23.364l-21.817 60.661h-52.67zm-38.372 65.286H184.44v41.972c-6.077 7.182-15.08 11.414-24.53 11.414s-18.452-4.232-24.53-11.414v-19.47c0-4.143-3.358-7.5-7.5-7.5s-7.5 3.357-7.5 7.5v19.476c-5.989 7.114-14.599 11.245-23.971 11.403-8.448.129-16.508-3.128-22.695-9.211-6.342-6.235-9.979-14.866-9.979-23.68z"/><path d="M301.328 62.958h11.636V74.56c0 4.143 3.358 7.5 7.5 7.5s7.5-3.357 7.5-7.5V62.958h11.637c4.143 0 7.5-3.357 7.5-7.5s-3.357-7.5-7.5-7.5h-11.637V36.355c0-4.143-3.357-7.5-7.5-7.5s-7.5 3.357-7.5 7.5v11.603h-11.636c-4.142 0-7.5 3.357-7.5 7.5s3.358 7.5 7.5 7.5z"/><circle cx="191.535" cy="36.355" r="7.5"/><circle cx="191.535" cy="74.56" r="7.5"/><circle cx="210.638" cy="55.458" r="7.5"/><circle cx="172.433" cy="55.458" r="7.5"/></g></svg>
